<?xml version="1.0" encoding="UTF-8"?>
<svg width="397px" height="85px" viewBox="0 0 397 85" version="1.1" xmlns="http://www.w3.org/2000/svg" xmlns:xlink="http://www.w3.org/1999/xlink">
    <title>Rectangle Copy 2</title>
    <defs>
        <path d="M16.8,84 C17.6,84 18.12,83.6 18.36,82.8 L18.36,82.8 L21.84,71.04 C22,70.72 22.2,70.56 22.44,70.56 L22.44,70.56 L51.96,70.56 C52.2,70.56 52.4,70.72 52.56,71.04 L52.56,71.04 L56.16,82.8 C56.4,83.6 56.92,84 57.72,84 L57.72,84 L72.96,84 C73.84,84 74.28,83.64 74.28,82.92 C74.28,82.68 74.24,82.48 74.16,82.32 L74.16,82.32 L48.24,1.2 C48,0.4 47.48,0 46.68,0 L46.68,0 L27.84,0 C27.04,0 26.52,0.4 26.28,1.2 L26.28,1.2 L0.36,82.32 C0.2,82.88 0.24,83.3 0.48,83.58 C0.72,83.86 1.08,84 1.56,84 L1.56,84 L16.8,84 Z M47.76,57.48 L26.64,57.48 C26.24,57.48 26.08,57.24 26.16,56.76 L26.16,56.76 L36.72,21.12 C36.8,20.88 36.92,20.74 37.08,20.7 C37.24,20.66 37.36,20.8 37.44,21.12 L37.44,21.12 L48.24,56.76 C48.4,57.24 48.24,57.48 47.76,57.48 L47.76,57.48 Z M141.6,84 C142,84 142.34,83.86 142.62,83.58 C142.9,83.3 143.04,82.96 143.04,82.56 L143.04,82.56 L143.04,70.92 C143.04,70.52 142.9,70.18 142.62,69.9 C142.34,69.62 142,69.48 141.6,69.48 L141.6,69.48 L102.36,69.48 C101.96,69.48 101.76,69.28 101.76,68.88 L101.76,68.88 L101.76,1.44 C101.76,1.04 101.62,0.7 101.34,0.42 C101.06,0.14 100.72,0 100.32,0 L100.32,0 L86.28,0 C85.88,0 85.54,0.14 85.26,0.42 C84.98,0.7 84.84,1.04 84.84,1.44 L84.84,1.44 L84.84,82.56 C84.84,82.96 84.98,83.3 85.26,83.58 C85.54,83.86 85.88,84 86.28,84 L86.28,84 L141.6,84 Z M187.92,84 C188.32,84 188.66,83.86 188.94,83.58 C189.22,83.3 189.36,82.96 189.36,82.56 L189.36,82.56 L189.36,15.24 C189.36,14.84 189.56,14.64 189.96,14.64 L189.96,14.64 L211.44,14.64 C211.84,14.64 212.18,14.5 212.46,14.22 C212.74,13.94 212.88,13.6 212.88,13.2 L212.88,13.2 L212.88,1.44 C212.88,1.04 212.74,0.7 212.46,0.42 C212.18,0.14 211.84,0 211.44,0 L211.44,0 L150.96,0 C150.56,0 150.22,0.14 149.94,0.42 C149.66,0.7 149.52,1.04 149.52,1.44 L149.52,1.44 L149.52,13.2 C149.52,13.6 149.66,13.94 149.94,14.22 C150.22,14.5 150.56,14.64 150.96,14.64 L150.96,14.64 L171.84,14.64 C172.24,14.64 172.44,14.84 172.44,15.24 L172.44,15.24 L172.44,82.56 C172.44,82.96 172.58,83.3 172.86,83.58 C173.14,83.86 173.48,84 173.88,84 L173.88,84 L187.92,84 Z M247.68,84.96 C251.2,84.96 254.36,84.24 257.16,82.8 C259.96,81.36 262.2,79.32 263.88,76.68 C264.04,76.52 264.18,76.46 264.3,76.5 C264.42,76.54 264.48,76.68 264.48,76.92 L264.48,76.92 L264.48,82.8 C264.48,83.6 264.88,84 265.68,84 L265.68,84 L269.64,84 C270.44,84 270.84,83.6 270.84,82.8 L270.84,82.8 L270.84,1.2 C270.84,0.4 270.44,0 269.64,0 L269.64,0 L265.68,0 C264.88,0 264.48,0.4 264.48,1.2 L264.48,1.2 L264.48,30.72 C264.48,30.96 264.4,31.1 264.24,31.14 C264.08,31.18 263.96,31.08 263.88,30.84 C262.2,28.2 259.96,26.16 257.16,24.72 C254.36,23.28 251.2,22.56 247.68,22.56 C242.08,22.56 237.38,24.02 233.58,26.94 C229.78,29.86 227.28,33.8 226.08,38.76 C225.6,40.6 225.28,42.68 225.12,45 C224.96,47.32 224.88,50.28 224.88,53.88 L224.88083,54.5221453 C224.889689,57.9081661 224.969412,60.6741176 225.12,62.82 C225.28,65.1 225.64,67.16 226.2,69 C227.56,73.88 230.12,77.76 233.88,80.64 C237.64,83.52 242.24,84.96 247.68,84.96 Z M248.28,79.32 C244.36,79.32 241,78.28 238.2,76.2 C235.4,74.12 233.6,71.4 232.8,68.04 C232.24,66.44 231.84,64.7 231.6,62.82 C231.36,60.94 231.24,57.92 231.24,53.76 L231.240672,53.247264 C231.251424,49.190688 231.3912,46.2216 231.66,44.34 C231.94,42.38 232.44,40.64 233.16,39.12 C234.12,35.92 235.96,33.3 238.68,31.26 C241.4,29.22 244.64,28.2 248.4,28.2 C252.08,28.2 255.18,29.22 257.7,31.26 C260.22,33.3 261.92,35.96 262.8,39.24 C263.36,40.84 263.76,42.62 264,44.58 C264.24,46.54 264.36,49.64 264.36,53.88 C264.36,57.96 264.26,60.96 264.06,62.88 C263.86,64.8 263.48,66.52 262.92,68.04 C261.96,71.4 260.22,74.12 257.7,76.2 C255.18,78.28 252.04,79.32 248.28,79.32 Z M313.8,84.96 C318.92,84.96 323.38,83.8 327.18,81.48 C330.98,79.16 333.76,76.04 335.52,72.12 C335.84,71.48 335.64,70.96 334.92,70.56 L334.92,70.56 L331.8,69 C331.16,68.68 330.64,68.88 330.24,69.6 C328.72,72.64 326.62,75.02 323.94,76.74 C321.26,78.46 318.04,79.32 314.28,79.32 C309.56,79.32 305.66,78.18 302.58,75.9 C299.5,73.62 297.52,70.52 296.64,66.6 C296.24,64.92 296.04,61.52 296.04,56.4 C296.04,56.08 296.2,55.92 296.52,55.92 L296.52,55.92 L335.64,55.92 C336.44,55.92 336.84,55.52 336.84,54.72 C336.84,51.68 336.8,49.14 336.72,47.1 C336.64,45.06 336.48,43.28 336.24,41.76 C335.28,35.76 332.84,31.06 328.92,27.66 C325,24.26 319.76,22.56 313.2,22.56 C307.44,22.56 302.58,24.08 298.62,27.12 C294.66,30.16 292.04,34.2 290.76,39.24 C290.36,40.92 290.1,42.76 289.98,44.76 C289.86,46.76 289.8,49.72 289.8,53.64 C289.8,57.4 289.92,60.52 290.16,63 C290.4,65.48 290.84,67.72 291.48,69.72 C292.92,74.44 295.6,78.16 299.52,80.88 C303.44,83.6 308.2,84.96 313.8,84.96 Z M330,50.52 L296.52,50.52 C296.2,50.52 296.04,50.36 296.04,50.04 C296.2,45.32 296.48,42.2 296.88,40.68 C297.68,36.92 299.52,33.9 302.4,31.62 C305.28,29.34 308.88,28.2 313.2,28.2 C317.52,28.2 321.16,29.38 324.12,31.74 C327.08,34.1 329,37.2 329.88,41.04 C330.28,43.04 330.48,46.04 330.48,50.04 C330.48,50.36 330.32,50.52 330,50.52 L330,50.52 Z M375,84 C375.72,84 376.2,83.68 376.44,83.04 L376.44,83.04 L396.24,24.96 C396.48,24.08 396.16,23.64 395.28,23.64 L395.28,23.64 L390.84,23.52 C390.12,23.52 389.64,23.84 389.4,24.48 L389.4,24.48 L373.08,74.16 C373,74.32 372.88,74.4 372.72,74.4 C372.56,74.4 372.44,74.32 372.36,74.16 L372.36,74.16 L356.04,24.48 C355.8,23.84 355.32,23.52 354.6,23.52 L354.6,23.52 L350.04,23.52 C349.32,23.52 348.96,23.8 348.96,24.36 L348.96,24.36 L349.08,24.84 L369,83.04 C369.24,83.68 369.72,84 370.44,84 L370.44,84 L375,84 Z" id="path-1"></path>
        <linearGradient x1="21.7625514%" y1="48.720443%" x2="100%" y2="52.2657092%" id="linearGradient-3">
            <stop stop-color="#8A00ED" offset="0%"></stop>
            <stop stop-color="#0093FF" offset="100%"></stop>
        </linearGradient>
    </defs>
    <g id="Page-1" stroke="none" stroke-width="1" fill="none" fill-rule="evenodd">
        <g id="Rectangle-Copy-2">
            <mask id="mask-2" fill="white">
                <use xlink:href="#path-1"></use>
            </mask>
            <use id="Mask" fill="#FFFFFF" fill-rule="nonzero" xlink:href="#path-1"></use>
            <rect fill="url(#linearGradient-3)" mask="url(#mask-2)" x="0" y="0" width="404" height="86"></rect>
        </g>
    </g>
</svg>